<svg width="180" height="33" viewBox="0 0 180 33" fill="none" xmlns="http://www.w3.org/2000/svg">
<path d="M0.770247 32.2061V2.82051H6.22756V27.5883H21.592V32.2061H0.770247ZM35.7285 32.4999C33.2378 32.4999 31.0548 32.0102 29.1798 31.0306C27.3327 30.0231 25.8914 28.6518 24.8559 26.9167C23.8484 25.1815 23.3446 23.2085 23.3446 20.9976C23.3446 18.7587 23.8344 16.7856 24.8139 15.0785C25.8214 13.3433 27.1927 11.986 28.9279 11.0065C30.691 10.027 32.692 9.53721 34.9309 9.53721C37.1139 9.53721 39.0589 10.013 40.7661 10.9645C42.4732 11.916 43.8166 13.2594 44.7961 14.9945C45.7756 16.7297 46.2654 18.7727 46.2654 21.1235C46.2654 21.3474 46.2514 21.5993 46.2234 21.8791C46.2234 22.159 46.2094 22.4249 46.1814 22.6767H27.5006V19.1925H43.4108L41.3538 20.2839C41.3818 18.9966 41.1159 17.8631 40.5562 16.8836C39.9964 15.9041 39.2268 15.1345 38.2473 14.5747C37.2958 14.015 36.1903 13.7351 34.9309 13.7351C33.6436 13.7351 32.5101 14.015 31.5306 14.5747C30.5791 15.1345 29.8235 15.9181 29.2637 16.9256C28.732 17.9051 28.4661 19.0665 28.4661 20.4099V21.2494C28.4661 22.5928 28.774 23.7822 29.3897 24.8177C30.0054 25.8532 30.8729 26.6508 31.9924 27.2105C33.1118 27.7702 34.3992 28.0501 35.8545 28.0501C37.1139 28.0501 38.2473 27.8542 39.2548 27.4624C40.2623 27.0706 41.1579 26.4549 41.9415 25.6153L44.7541 28.8477C43.7466 30.0231 42.4732 30.9327 40.934 31.5764C39.4227 32.1921 37.6876 32.4999 35.7285 32.4999ZM61.3809 32.4999C59.086 32.4999 57.043 32.0102 55.2519 31.0306C53.4608 30.0231 52.0475 28.6518 51.012 26.9167C49.9765 25.1815 49.4587 23.2085 49.4587 20.9976C49.4587 18.7587 49.9765 16.7856 51.012 15.0785C52.0475 13.3433 53.4608 11.986 55.2519 11.0065C57.043 10.027 59.086 9.53721 61.3809 9.53721C63.7037 9.53721 65.7607 10.027 67.5518 11.0065C69.371 11.986 70.7843 13.3293 71.7918 15.0365C72.8273 16.7437 73.345 18.7307 73.345 20.9976C73.345 23.2085 72.8273 25.1815 71.7918 26.9167C70.7843 28.6518 69.371 30.0231 67.5518 31.0306C65.7607 32.0102 63.7037 32.4999 61.3809 32.4999ZM61.3809 28.0081C62.6683 28.0081 63.8157 27.7283 64.8232 27.1685C65.8307 26.6088 66.6143 25.7972 67.174 24.7337C67.7617 23.6703 68.0556 22.4249 68.0556 20.9976C68.0556 19.5423 67.7617 18.2969 67.174 17.2614C66.6143 16.1979 65.8307 15.3863 64.8232 14.8266C63.8157 14.2669 62.6822 13.987 61.4229 13.987C60.1355 13.987 58.9881 14.2669 57.9806 14.8266C57.001 15.3863 56.2174 16.1979 55.6297 17.2614C55.042 18.2969 54.7481 19.5423 54.7481 20.9976C54.7481 22.4249 55.042 23.6703 55.6297 24.7337C56.2174 25.7972 57.001 26.6088 57.9806 27.1685C58.9881 27.7283 60.1215 28.0081 61.3809 28.0081ZM91.0826 9.53721C92.8737 9.53721 94.4689 9.88703 95.8682 10.5867C97.2955 11.2863 98.415 12.3638 99.2266 13.8191C100.038 15.2464 100.444 17.0935 100.444 19.3604V32.2061H95.1966V20.032C95.1966 18.045 94.7208 16.5618 93.7693 15.5822C92.8457 14.6027 91.5444 14.113 89.8652 14.113C88.6338 14.113 87.5423 14.3648 86.5908 14.8686C85.6393 15.3723 84.8976 16.128 84.3659 17.1355C83.8621 18.115 83.6103 19.3604 83.6103 20.8716V32.2061H78.3628V9.78908H83.3584V15.8341L82.4768 13.987C83.2604 12.5597 84.3939 11.4683 85.8771 10.7126C87.3884 9.92901 89.1235 9.53721 91.0826 9.53721Z" fill="#2D6A4F"/>
<path d="M105.715 13.7771L108.15 4.45771L108.864 7.60616C107.884 7.60616 107.059 7.29831 106.387 6.68261C105.743 6.06691 105.421 5.24132 105.421 4.20583C105.421 3.17034 105.743 2.34474 106.387 1.72905C107.059 1.08536 107.87 0.763523 108.822 0.763523C109.801 0.763523 110.613 1.08536 111.257 1.72905C111.9 2.37273 112.222 3.19832 112.222 4.20583C112.222 4.51368 112.194 4.83552 112.138 5.17135C112.11 5.4792 112.026 5.84302 111.886 6.26282C111.774 6.65462 111.578 7.17237 111.299 7.81605L109.116 13.7771H105.715ZM112.221 32.2061L125.445 2.82051H130.818L144.084 32.2061H138.375L126.998 5.71708H129.181L117.847 32.2061H112.221ZM118.308 25.4054L119.778 21.1235H135.646L137.115 25.4054H118.308ZM147.317 32.2061V9.78908H152.313V15.96L151.725 14.1549C152.397 12.6437 153.446 11.4962 154.873 10.7126C156.329 9.92901 158.134 9.53721 160.289 9.53721V14.5327C160.065 14.4768 159.855 14.4488 159.659 14.4488C159.463 14.4208 159.267 14.4068 159.071 14.4068C157.084 14.4068 155.503 14.9945 154.328 16.1699C153.152 17.3174 152.565 19.0385 152.565 21.3334V32.2061H147.317ZM173.998 32.4999C171.535 32.4999 169.632 31.8702 168.289 30.6108C166.945 29.3235 166.274 27.4344 166.274 24.9436V4.83552H171.521V24.8177C171.521 25.8812 171.787 26.7068 172.319 27.2945C172.879 27.8822 173.648 28.176 174.628 28.176C175.803 28.176 176.783 27.8682 177.566 27.2525L179.036 30.9887C178.42 31.4924 177.664 31.8702 176.769 32.1221C175.873 32.374 174.95 32.4999 173.998 32.4999ZM162.58 14.1549V9.957H177.524V14.1549H162.58Z" fill="#52B788"/>
</svg>
