<svg width="52" height="48" viewBox="0 0 52 48" fill="none" xmlns="http://www.w3.org/2000/svg">
<path d="M23.8411 25.8145C24.2253 26.0814 24.2364 26.6607 23.9087 26.9941C23.565 27.3439 23.0904 27.6117 22.5998 27.5913C21.6763 27.553 20.8522 26.9013 20.467 26.0634C20.467 26.0634 20.467 26.0634 20.467 26.0634C20.0785 25.2183 20.002 24.2266 20.2778 23.3385C20.2778 23.3385 20.2778 23.3385 20.2778 23.3385C20.7102 21.9463 21.8799 20.8401 23.2585 20.3564C23.2585 20.3564 23.2585 20.3564 23.2585 20.3564C24.6436 19.8703 26.2125 19.9145 27.5653 20.4841C31.2854 22.0502 32.7268 27.1417 30.9679 30.7666C28.7209 35.3971 22.2051 37.0829 17.6343 34.6987C12.0661 31.7944 10.1228 23.8776 13.1511 18.3866C14.9354 15.151 18.1713 12.7897 21.7668 11.9077C25.3685 11.0242 29.308 11.5457 32.5308 13.3767H32.5308C36.2389 15.4835 38.9267 19.2267 39.9108 23.3682C40.8964 27.5157 40.252 32.039 38.0946 35.7186C35.6548 39.8796 31.3837 42.8796 26.6735 43.9606C21.9571 45.0429 16.8249 44.2789 12.6688 41.8061C8.032 39.0473 4.70286 34.2714 3.51922 29.0178L3.51922 29.0178C2.33419 23.758 3.22215 18.0446 6.02434 13.4346C9.11677 8.34708 14.4236 4.70668 20.2494 3.42676C26.0814 2.14549 32.4074 3.1528 37.4963 6.2694H37.4963C43.0624 9.67832 47.0341 15.4872 48.4173 21.8537H48.4173C49.8018 28.2263 48.6696 35.1306 45.2213 40.6706C44.2238 42.2732 43.0504 43.7668 41.7306 45.1179" stroke="#2D6A4F" stroke-width="4.66016" stroke-linecap="round" stroke-linejoin="bevel"/>
</svg>
