<svg width="73" height="46" viewBox="0 0 73 46" fill="none" xmlns="http://www.w3.org/2000/svg">
<path d="M36.2395 10.2841V45.4176H1C6.11256 23.4333 18.316 12.4297 36.2395 10.2841Z" fill="#2D6A4F" stroke="#2D6A4F" stroke-width="1.09711" stroke-linecap="round" stroke-linejoin="round"/>
<path d="M53.2057 36.755V45.8195H62.9607C61.5455 40.1475 58.1673 37.3085 53.2057 36.755Z" fill="#2D6A4F" stroke="#2D6A4F" stroke-width="0.293281" stroke-linecap="round" stroke-linejoin="round"/>
<path d="M41.0806 1V32.0634H72C67.5142 12.6259 56.8068 2.89702 41.0806 1Z" fill="#2D6A4F" stroke="#2D6A4F" stroke-width="0.966302" stroke-linecap="round" stroke-linejoin="round"/>
<path d="M54.586 27.2457C58.2673 27.2457 61.2515 24.2566 61.2515 20.5693C61.2515 16.882 58.2673 13.8929 54.586 13.8929C50.9048 13.8929 47.9205 16.882 47.9205 20.5693C47.9205 24.2566 50.9048 27.2457 54.586 27.2457Z" fill="#B7E4C7"/>
<path d="M53.1987 36.7542H36.2385V45.8208H53.1987V36.7542Z" fill="#2D6A4F" stroke="#2D6A4F" stroke-width="0.291265"/>
</svg>
